# xmcd
#
# Track frame offsets: 
#        150
#        42500
#        88788
#        148344
#        182946
#        255301
#        305752
#
# Disc length: 4651 seconds
#
# Revision: 0
# Processed by: cddbd v1.5.2PL0 Copyright (c) Steve Scherf et al.
# Submitted via: ExactAudioCopyFreeDBPlugin 1.0
#
DISCID=66122907
DTITLE=Various Artist - Wittener Tage für neue Kammermusik 2007 [CD 1
DTITLE=)
DYEAR=2007
DGENRE=Contemporary Classical, Electronic
TTITLE0=Nicolas Hodges (Piano) - Peter Ablinger - Voices And Piano für
TTITLE0=Klavier und CD-Zuspielung (1988-2007) UA
TTITLE1=WDR Rundfunkchor Köln - Isabel Mundry - Gesichtet, Gesichelt (
TTITLE1=2007) UA
TTITLE2=Nicolas Hodges (Piano) - Walter Zimmermann - Voces Abandonadas
TTITLE2=2 (2005-06) UA
TTITLE3=Stephan Froleyks (Instruments), Amanda Stewart (Voice, Text By
TTITLE3=) - Amanda Stewart, Stephan Froleyks - Dust für verstärkte Sti
TTITLE3=mme,Texte und Selbstbauinstrumente (2007) UA
TTITLE4=Ernst Surberg (Organ) - Enno Poppe - Arbeit für virtuelle Hamm
TTITLE4=ondorgel (2007) UA
TTITLE5=Ensemble 2x2 - Jérôme Combier - Sables De Vieux Os (2007) UA
TTITLE6=Georges Aperghis - Zeugen (2006-07) UA
EXTD=
EXTT0=
EXTT1=
EXTT2=
EXTT3=
EXTT4=
EXTT5=
EXTT6=
PLAYORDER=
